<svg width="265" height="45" viewBox="0 0 265 45" fill="none" xmlns="http://www.w3.org/2000/svg">
<path d="M61.1368 35.7616V31.7492H72.6389C73.3774 31.7492 74.0143 31.571 74.5494 31.2141C75.1098 30.8575 75.543 30.399 75.8486 29.8386C76.1799 29.2526 76.3453 28.6413 76.3453 28.0043C76.3453 27.3164 76.1924 26.6923 75.8868 26.1319C75.5811 25.5715 75.1479 25.1255 74.5875 24.7946C74.0528 24.4633 73.4283 24.2976 72.7151 24.2976H67.9386C66.4356 24.2976 65.0854 23.9919 63.8881 23.3806C62.716 22.7437 61.7862 21.8648 61.0983 20.7441C60.4108 19.623 60.0667 18.2984 60.0667 16.7698C60.0667 15.2412 60.398 13.9038 61.0602 12.7574C61.7225 11.5857 62.627 10.6684 63.7734 10.0061C64.9198 9.34387 66.219 9.01257 67.671 9.01257H79.1731V13.0249H68.0914C67.4292 13.0249 66.8303 13.1906 66.2956 13.5216C65.7605 13.8529 65.3401 14.286 65.0345 14.8208C64.7541 15.3559 64.6141 15.9291 64.6141 16.5404C64.6141 17.1773 64.7541 17.7634 65.0345 18.2984C65.3401 18.8079 65.7477 19.2282 66.2571 19.5592C66.7922 19.8649 67.391 20.018 68.0533 20.018H72.9445C74.5747 20.018 75.9762 20.3362 77.1479 20.9731C78.3452 21.6101 79.2622 22.4889 79.8991 23.61C80.5614 24.7308 80.8927 26.0172 80.8927 27.4693C80.8927 29.1764 80.5489 30.6537 79.861 31.902C79.1988 33.125 78.2814 34.0801 77.1097 34.768C75.9633 35.4302 74.6641 35.7616 73.2121 35.7616H61.1368ZM94.4183 35.7616C92.4056 35.7616 90.6097 35.3284 89.0302 34.4623C87.4509 33.5963 86.2026 32.4371 85.2853 30.985C84.3683 29.5073 83.9098 27.8515 83.9098 26.0172C83.9098 24.1832 84.3683 22.5399 85.2853 21.0878C86.2026 19.6101 87.4509 18.4384 89.0302 17.5724C90.6097 16.706 92.4056 16.2732 94.4183 16.2732H96.7874V20.018H94.3418C93.1701 20.018 92.1256 20.2852 91.2082 20.8203C90.3169 21.3297 89.6162 22.0433 89.1067 22.9603C88.5973 23.8772 88.3426 24.8964 88.3426 26.0172C88.3426 27.1383 88.5973 28.1572 89.1067 29.0745C89.6162 29.9915 90.3169 30.7175 91.2082 31.2526C92.1256 31.762 93.1701 32.0167 94.3418 32.0167H96.7874V35.7616H94.4183ZM100.464 35.7616V21.8139C100.464 20.0815 100.948 18.7313 101.916 17.7634C102.909 16.7698 104.272 16.2732 106.004 16.2732H110.705V20.018H106.807C106.196 20.018 105.712 20.1962 105.355 20.5528C105.024 20.9094 104.858 21.3935 104.858 22.0048V35.7616H100.464ZM113.752 35.7616V16.2732H118.146V35.7616H113.752ZM115.93 13.56C115.166 13.56 114.504 13.2797 113.943 12.7193C113.383 12.1589 113.102 11.4963 113.102 10.7322C113.102 9.96801 113.383 9.30541 113.943 8.74503C114.504 8.18466 115.166 7.9043 115.93 7.9043C116.72 7.9043 117.382 8.18466 117.917 8.74503C118.478 9.30541 118.758 9.96801 118.758 10.7322C118.758 11.4963 118.478 12.1589 117.917 12.7193C117.382 13.2797 116.72 13.56 115.93 13.56ZM133.391 15.8144C134.97 15.8144 136.384 16.0691 137.632 16.5788C138.881 17.0626 139.938 17.7762 140.804 18.7188C141.696 19.6611 142.371 20.7822 142.829 22.0814C143.314 23.355 143.555 24.7689 143.555 26.3229C143.555 28.2847 143.148 30.0168 142.333 31.5201C141.543 32.9974 140.435 34.1567 139.008 34.9974C137.607 35.8125 135.977 36.22 134.117 36.22C133.2 36.22 132.334 36.08 131.518 35.7997C130.703 35.5197 129.964 35.1246 129.302 34.6152C128.64 34.1057 128.105 33.5069 127.697 32.8193H127.659V44.1682H123.264V26.2466C123.264 24.081 123.685 22.2214 124.526 20.6675C125.392 19.1135 126.589 17.9162 128.118 17.0755C129.646 16.2347 131.404 15.8144 133.391 15.8144ZM133.391 19.5592C132.296 19.5592 131.315 19.8396 130.448 20.3999C129.582 20.935 128.907 21.6863 128.423 22.6546C127.939 23.6225 127.697 24.7436 127.697 26.0172C127.697 27.2655 127.939 28.3866 128.423 29.3801C128.907 30.3481 129.582 31.1122 130.448 31.6729C131.315 32.2077 132.308 32.4752 133.429 32.4752C134.55 32.4752 135.531 32.1952 136.371 31.6345C137.238 31.0741 137.913 30.3099 138.397 29.3417C138.881 28.3737 139.123 27.2655 139.123 26.0172C139.123 24.7436 138.881 23.6225 138.397 22.6546C137.913 21.6863 137.238 20.935 136.371 20.3999C135.505 19.8396 134.512 19.5592 133.391 19.5592ZM153.69 35.7616C151.958 35.7616 150.595 35.2649 149.601 34.2714C148.633 33.2778 148.149 31.9276 148.149 30.2205V11.3819H152.505V30.0296C152.505 30.6156 152.684 31.0997 153.04 31.4816C153.397 31.8382 153.868 32.0167 154.454 32.0167H158.543V35.7616H153.69ZM144.787 20.018V16.2732H158.581V20.018H144.787Z" fill="white"/>
<path d="M172.978 35.7617V9.0127H181.767C184.62 9.0127 187.091 9.58589 189.18 10.7323C191.269 11.8787 192.887 13.4583 194.034 15.4707C195.18 17.4831 195.753 19.7887 195.753 22.3872C195.753 24.9856 195.18 27.2912 194.034 29.3037C192.887 31.3161 191.269 32.8957 189.18 34.0421C187.091 35.1885 184.62 35.7617 181.767 35.7617H172.978ZM177.525 31.7493H181.805C183.614 31.7493 185.219 31.3799 186.62 30.641C188.047 29.8769 189.168 28.7942 189.983 27.3931C190.798 25.9664 191.206 24.2977 191.206 22.3872C191.206 20.451 190.798 18.7823 189.983 17.3812C189.168 15.9801 188.047 14.9103 186.62 14.1715C185.219 13.4073 183.614 13.0251 181.805 13.0251H177.525V31.7493ZM209.054 36.2202C207.041 36.2202 205.258 35.7745 203.704 34.8828C202.15 33.9658 200.915 32.7429 199.998 31.2142C199.106 29.6603 198.66 27.9282 198.66 26.0173C198.66 24.1068 199.106 22.3872 199.998 20.8585C200.915 19.3046 202.15 18.082 203.704 17.1903C205.258 16.2733 207.041 15.8145 209.054 15.8145C211.041 15.8145 212.812 16.2733 214.366 17.1903C215.92 18.082 217.142 19.2918 218.034 20.8204C218.951 22.3491 219.41 24.0811 219.41 26.0173C219.41 27.9282 218.951 29.6603 218.034 31.2142C217.142 32.7429 215.92 33.9658 214.366 34.8828C212.812 35.7745 211.041 36.2202 209.054 36.2202ZM209.054 32.4753C210.251 32.4753 211.296 32.1953 212.188 31.6346C213.079 31.0489 213.767 30.2716 214.251 29.3037C214.735 28.3358 214.977 27.2403 214.977 26.0173C214.977 24.82 214.735 23.7374 214.251 22.7694C213.767 21.7759 213.079 20.9989 212.188 20.4382C211.296 19.8525 210.251 19.5593 209.054 19.5593C207.831 19.5593 206.774 19.8525 205.882 20.4382C205.016 20.9989 204.328 21.763 203.819 22.731C203.335 23.6992 203.093 24.7947 203.093 26.0173C203.093 27.2147 203.335 28.3101 203.819 29.3037C204.328 30.2716 205.016 31.0489 205.882 31.6346C206.774 32.1953 207.831 32.4753 209.054 32.4753ZM223.577 35.7617V24.5271C223.577 22.8457 223.959 21.3555 224.723 20.0563C225.487 18.7314 226.57 17.6997 227.971 16.9609C229.372 16.1967 231.015 15.8145 232.901 15.8145C234.786 15.8145 236.416 16.1967 237.792 16.9609C239.193 17.6997 240.276 18.7314 241.04 20.0563C241.804 21.3555 242.186 22.8457 242.186 24.5271V35.7617H237.83V24.5653C237.83 23.5717 237.601 22.7057 237.142 21.9668C236.684 21.2027 236.072 20.6166 235.308 20.2091C234.569 19.7759 233.754 19.5593 232.862 19.5593C231.996 19.5593 231.181 19.7759 230.417 20.2091C229.678 20.6166 229.079 21.2027 228.621 21.9668C228.187 22.7057 227.971 23.5717 227.971 24.5653V35.7617H223.577ZM257.319 35.7617C255.128 35.7617 253.204 35.3541 251.549 34.5387C249.918 33.6983 248.644 32.5519 247.727 31.0999C246.81 29.6222 246.351 27.9282 246.351 26.0173C246.351 24.0049 246.759 22.2344 247.574 20.7057C248.389 19.1774 249.511 17.9801 250.937 17.1137C252.364 16.2477 254.007 15.8145 255.867 15.8145C257.955 15.8145 259.675 16.2605 261.025 17.1522C262.375 18.0435 263.37 19.2408 264.005 20.7442C264.669 22.2472 265 23.9283 265 25.7882C265 26.043 264.986 26.3358 264.96 26.6671C264.936 26.9981 264.899 27.2531 264.848 27.4313H251.014C251.166 28.4505 251.536 29.3037 252.122 29.9916C252.707 30.6538 253.446 31.1633 254.338 31.5202C255.23 31.8512 256.223 32.0168 257.319 32.0168H262.554V35.7617H257.319ZM250.975 24.4506H260.605C260.579 23.9668 260.503 23.4826 260.376 22.9985C260.274 22.5147 260.095 22.0559 259.841 21.623C259.611 21.1898 259.306 20.8204 258.924 20.5148C258.567 20.1835 258.134 19.9287 257.624 19.7506C257.115 19.5468 256.529 19.445 255.867 19.445C255.102 19.445 254.427 19.5978 253.841 19.9034C253.255 20.1835 252.758 20.5657 252.351 21.0498C251.943 21.5083 251.625 22.0434 251.396 22.6547C251.192 23.2407 251.052 23.8392 250.975 24.4506Z" fill="white"/>
<path d="M11.077 22.098H0V44.1959H30.0417C33.1189 44.1959 35.8601 42.9652 37.8742 40.951C39.888 38.9373 41.1187 36.1958 41.1187 33.1189C41.1187 27.0209 36.1958 22.042 30.0417 22.042H41.1187V0H11.077C4.97896 0 0 4.92295 0 11.077C0 14.1538 1.23074 16.895 3.24452 18.9091C5.25864 20.9232 7.9998 22.098 11.077 22.098Z" fill="#27548A"/>
<path d="M15.3278 22.098H9.28574V34.2378H25.789C27.4675 34.2378 28.9779 33.5664 30.097 32.4477C31.2157 31.3286 31.8871 29.8182 31.8871 28.1401C31.8871 24.7832 29.1459 22.042 25.789 22.042H31.8871V9.95801H15.3278C11.9709 9.95801 9.22974 12.6992 9.22974 16.056C9.22974 17.7345 9.90111 19.2449 11.0198 20.3636C12.1389 21.4267 13.6493 22.098 15.3278 22.098Z" fill="white"/>
<path d="M14.7678 27.7483V16.5037H19.1314C20.2501 16.5037 21.0895 16.5597 21.5929 16.6713C22.1522 16.7833 22.5999 16.951 22.9916 17.175C23.7747 17.6224 24.334 18.2938 24.7257 19.0771C25.1174 19.9162 25.2851 20.9233 25.2851 22.154C25.2851 23.4407 25.0614 24.5035 24.5581 25.3428C24.0544 26.2379 23.383 26.8533 22.4319 27.301C22.0406 27.4686 21.5929 27.5806 21.0335 27.6363C20.4742 27.6923 19.5788 27.7483 18.404 27.7483H14.7678Z" fill="#27548A"/>
</svg>
