<svg width="44" height="45" viewBox="0 0 44 45" fill="none" xmlns="http://www.w3.org/2000/svg">
<path d="M11.077 22.098H0V44.1959H30.0417C33.1189 44.1959 35.8601 42.9652 37.8742 40.951C39.888 38.9373 41.1187 36.1958 41.1187 33.1189C41.1187 27.0209 36.1958 22.042 30.0417 22.042H41.1187V0H11.077C4.97896 0 0 4.92295 0 11.077C0 14.1538 1.23074 16.895 3.24452 18.9091C5.25864 20.9232 7.9998 22.098 11.077 22.098Z" fill="#27548A"/>
<path d="M15.3276 22.098H9.28549V34.2378H25.7888C27.4673 34.2378 28.9777 33.5664 30.0968 32.4477C31.2155 31.3286 31.8869 29.8182 31.8869 28.1401C31.8869 24.7832 29.1457 22.042 25.7888 22.042H31.8869V9.95801H15.3276C11.9707 9.95801 9.22949 12.6992 9.22949 16.056C9.22949 17.7345 9.90086 19.2449 11.0196 20.3636C12.1387 21.4267 13.6491 22.098 15.3276 22.098Z" fill="white"/>
<path d="M14.7676 27.7483V16.5037H19.1312C20.2499 16.5037 21.0893 16.5597 21.5927 16.6713C22.152 16.7833 22.5997 16.951 22.9914 17.175C23.7745 17.6224 24.3338 18.2938 24.7255 19.0771C25.1172 19.9162 25.2849 20.9233 25.2849 22.154C25.2849 23.4407 25.0612 24.5035 24.5579 25.3428C24.0542 26.2379 23.3828 26.8533 22.4317 27.301C22.0404 27.4686 21.5927 27.5806 21.0333 27.6363C20.474 27.6923 19.5786 27.7483 18.4038 27.7483H14.7676Z" fill="#27548A"/>
</svg>
