<svg width="34" height="38" viewBox="0 0 34 38" fill="none" xmlns="http://www.w3.org/2000/svg">
<path d="M9.1542 19.0981H0V37.3601H24.8269C27.37 37.3601 29.6353 36.343 31.2998 34.6785C32.964 33.0143 33.9811 30.7487 33.9811 28.2059C33.9811 23.1664 29.9128 19.0518 24.8269 19.0518H33.9811V0.835938H9.1542C4.11469 0.835938 0 4.90434 0 9.99014C0 12.5328 1.0171 14.7982 2.68132 16.4627C4.34582 18.1272 6.61115 19.0981 9.1542 19.0981Z" fill="#27548A"/>
<path d="M12.6672 19.0981H7.67396V29.1306H21.3125C22.6996 29.1306 23.9479 28.5758 24.8727 27.6512C25.7972 26.7264 26.3521 25.4782 26.3521 24.0914C26.3521 21.3172 24.0867 19.0518 21.3125 19.0518H26.3521V9.06543H12.6672C9.89302 9.06543 7.62769 11.3308 7.62769 14.1049C7.62769 15.492 8.18252 16.7403 9.10702 17.6648C10.0319 18.5433 11.2801 19.0981 12.6672 19.0981Z" fill="white"/>
<path d="M12.2043 23.7676V14.4749H15.8105C16.735 14.4749 17.4287 14.5211 17.8447 14.6134C18.3069 14.7059 18.6769 14.8445 19.0006 15.0296C19.6478 15.3994 20.11 15.9542 20.4337 16.6015C20.7574 17.295 20.896 18.1273 20.896 19.1443C20.896 20.2077 20.7111 21.086 20.2952 21.7796C19.8789 22.5193 19.3241 23.0279 18.5381 23.3979C18.2147 23.5364 17.8447 23.629 17.3824 23.675C16.9202 23.7213 16.1802 23.7676 15.2094 23.7676H12.2043Z" fill="#27548A"/>
</svg>
